<?xml version="1.0" encoding="utf-8"?><svg xmlns="http://www.w3.org/2000/svg" xmlns:xlink="http://www.w3.org/1999/xlink" style="display:none"><symbol fill="none" viewBox="0 0 48 48" id="avatar" xmlns="http://www.w3.org/2000/svg"><circle cx="24" cy="24" r="24" fill="#FDF3DF"/><path fill="#57483C" d="M23.905 23.142a4.496 4.496 0 004.49-4.491 4.496 4.496 0 00-4.49-4.49 4.496 4.496 0 00-4.49 4.49 4.495 4.495 0 004.49 4.49zm.002 1.126c-4.963 0-9 4.037-9 9 0 .295.238.534.533.534h16.933a.534.534 0 00.534-.534c0-4.963-4.037-9-9-9z"/></symbol><symbol fill="none" viewBox="0 0 32 32" id="blog" xmlns="http://www.w3.org/2000/svg"><circle cx="16" cy="16" r="16" fill="#009CF4"/><path d="M13.98 14.78v-2.305h2.323c1.138 0 1.707.381 1.707 1.144 0 .774-.57 1.16-1.707 1.16H13.98zm4.61 3.55c0 .809-.592 1.213-1.775 1.213H13.98v-2.424h2.834c1.183 0 1.775.404 1.775 1.212z" fill="#FAFAFA"/><path fill-rule="evenodd" clip-rule="evenodd" d="M16 27c6.075 0 11-4.925 11-11S22.075 5 16 5 5 9.925 5 16c0 2.026.548 3.924 1.503 5.554.01.016.013.035.01.053-.272 1.546-.835 4.036-1.435 5.245-.03.06.024.129.09.116 2.872-.55 3.17-.727 4.703-1.639l.111-.066a.08.08 0 01.084.001A10.95 10.95 0 0016 27zm5.424-10.12c-.387-.513-.922-.888-1.605-1.127.513-.262.905-.615 1.178-1.059a2.84 2.84 0 00.427-1.536c0-.956-.398-1.713-1.195-2.27-.797-.57-1.957-.854-3.483-.854h-6.111v11.95h6.453c1.593 0 2.811-.285 3.653-.854.843-.569 1.264-1.377 1.264-2.424 0-.717-.194-1.326-.58-1.826z" fill="#FAFAFA"/></symbol><symbol fill="none" viewBox="0 0 18 18" id="check" xmlns="http://www.w3.org/2000/svg"><circle cx="9" cy="9" r="9" fill="#48A663"/><path d="M7.938 13.375C7.712 13.066 5.218 10.523 4 9.29l1-.833 2.372 2.113c1.776-2.016 4.178-4.024 5.157-4.776.312-.264 1.014-.727 1.327-.467.313.26.043.569-.13.69-1.863 1.415-4.635 5.495-5.788 7.358z" fill="#fff"/></symbol><symbol fill="none" viewBox="0 0 14 12" id="check-mark" xmlns="http://www.w3.org/2000/svg"><path d="M5.866 11.833c-.304-.443-3.65-4.095-5.284-5.866l1.343-1.196 3.182 3.035C7.489 4.91 10.71 2.028 12.025.948c.418-.38 1.36-1.045 1.78-.671.42.373.059.817-.175.992-2.498 2.031-6.217 7.89-7.764 10.564z" fill="#fff"/></symbol><symbol fill="none" viewBox="0 0 18 18" id="false" xmlns="http://www.w3.org/2000/svg"><circle cx="9" cy="9" r="9" fill="#BD3132"/><path d="M12.822 5.184a.604.604 0 00-.855 0L9 8.144 6.033 5.177a.604.604 0 10-.856.856L8.144 9l-2.967 2.967a.604.604 0 10.856.855L9 9.857l2.967 2.966a.604.604 0 10.855-.855L9.857 9l2.966-2.967a.608.608 0 000-.85z" fill="#fff"/></symbol><symbol viewBox="0 0 20 20" id="icon-android" xmlns="http://www.w3.org/2000/svg"><path d="M3.64 6.811h-.047c-.602 0-1.093.493-1.093 1.093v4.759c0 .602.49 1.093 1.093 1.093h.048c.602 0 1.093-.492 1.093-1.093V7.904A1.099 1.099 0 003.64 6.811zM5.256 14.5c0 .552.452 1.002 1.004 1.002h1.074v2.57c0 .604.492 1.095 1.093 1.095h.046c.603 0 1.095-.492 1.095-1.095v-2.57h1.5v2.57c0 .604.494 1.095 1.094 1.095h.047c.602 0 1.093-.492 1.093-1.095v-2.57h1.074c.552 0 1.004-.45 1.004-1.003V6.986H5.256v7.513zM12.84 2.43l.853-1.316a.181.181 0 10-.304-.198l-.884 1.362a5.763 5.763 0 00-2.186-.425 5.77 5.77 0 00-2.186.425L7.25.916a.181.181 0 00-.252-.053.181.181 0 00-.053.25l.853 1.317c-1.538.754-2.575 2.174-2.575 3.804 0 .1.006.2.015.297h10.164c.008-.098.014-.196.014-.297 0-1.63-1.038-3.05-2.576-3.804zM7.963 4.786a.488.488 0 11-.002-.977.488.488 0 01.002.977zm4.712 0a.488.488 0 11-.002-.977.488.488 0 01.002.977zm4.369 2.025H17c-.602 0-1.095.493-1.095 1.093v4.759c0 .602.494 1.093 1.095 1.093h.046c.603 0 1.093-.492 1.093-1.093V7.904c0-.6-.492-1.093-1.094-1.093z"/></symbol><symbol viewBox="0 0 20 20" id="icon-ios" xmlns="http://www.w3.org/2000/svg"><path d="M15.001 11.11c-.504-2.538 1.905-4.027 1.905-4.027s-.939-1.358-2.516-1.707c-1.577-.35-2.366.087-3.154.415-.788.33-1.181.33-1.181.33-1.138 0-1.97-1.205-4.137-.657-1.493.377-3.065 2.1-3.35 4.158-.283 2.058.33 4.684 1.511 6.72 1.182 2.037 2.386 2.802 3.24 2.824.855.021 1.707-.612 2.736-.766 1.029-.153 1.662.373 2.671.657 1.006.283 1.358.02 2.516-.965 1.162-.985 2.213-3.81 2.213-3.81s-1.95-.633-2.454-3.172zm-2.233-7.376c1.117-1.138.74-2.9.74-2.9s-1.57.275-2.62 1.368c-1.051 1.095-.877 2.823-.877 2.823s1.64-.153 2.757-1.291z"/></symbol><symbol viewBox="0 0 18 18" id="icon-search" xmlns="http://www.w3.org/2000/svg"><path d="M4.009 12.351h.86l.304-.293a7.062 7.062 0 01-1.61-5.809C4.074 3.225 6.599.809 9.647.439a7.078 7.078 0 017.913 7.91c-.37 3.045-2.786 5.569-5.812 6.08a7.072 7.072 0 01-5.813-1.61l-.294.305v.86l-3.3 3.297a1.15 1.15 0 01-1.622 0 1.148 1.148 0 010-1.62l3.29-3.31zm6.53 0a4.89 4.89 0 004.899-4.895 4.89 4.89 0 00-4.898-4.895 4.89 4.89 0 00-4.9 4.895 4.89 4.89 0 004.899 4.895z"/><path d="M4.869 12.351h-.86l.77-.796c.124.173.256.341.394.503l-.304.293zm.772.773l.294-.305c.155.133.316.26.482.378l-.776.786v-.86z"/></symbol><symbol viewBox="0 0 6 6" id="icon-small-arrow" xmlns="http://www.w3.org/2000/svg"><path d="M.3 2.908L3.168.038A.13.13 0 013.26 0h2.348A.13.13 0 015.7.223L2.924 3 5.7 5.777A.13.13 0 015.609 6H3.26a.13.13 0 01-.092-.038l-2.87-2.87a.13.13 0 010-.184z"/></symbol><symbol viewBox="0 0 20 20" id="icon-smartphone" xmlns="http://www.w3.org/2000/svg"><path d="M12.895.833H6.458a2.285 2.285 0 00-2.292 2.292v13.75a2.298 2.298 0 002.292 2.292h6.437a2.285 2.285 0 002.292-2.292V3.125A2.286 2.286 0 0012.895.833zM9.687 17.687a1.032 1.032 0 01-1.042-1.041c0-.584.459-1.042 1.042-1.042s1.042.459 1.042 1.042-.459 1.041-1.042 1.041zm4.458-3.187H5.208V3.896h8.937V14.5z"/></symbol><symbol viewBox="0 0 11 10" id="icon-star" xmlns="http://www.w3.org/2000/svg"><path d="M5.712.389l1.269 3.01 3.248.28c.225.02.317.302.146.45L7.91 6.27l.738 3.184a.256.256 0 01-.381.277L5.476 8.043 2.685 9.73a.256.256 0 01-.382-.277l.739-3.184L.577 4.13a.257.257 0 01.146-.45l3.248-.28L5.241.39a.256.256 0 01.47 0z"/></symbol><symbol viewBox="0 0 20 20" id="icon-windows" xmlns="http://www.w3.org/2000/svg"><path d="M7.783 3.62L2.5 4.676V9.55l5.283-.09V3.62zm9.788 7.082l-8.58-.146v6.064l8.58 1.713v-7.63zm-9.788-.165l-5.283-.09v4.876l5.283 1.055v-5.84zm9.788-8.87L8.99 3.379v6.064l8.58-.146v-7.63z"/></symbol><symbol fill="none" viewBox="0 0 12 12" id="info" xmlns="http://www.w3.org/2000/svg"><path d="M10.243 1.757a6 6 0 10-8.486 8.487 6 6 0 008.486-8.487zM6.783 8.61a.783.783 0 11-1.566 0V5.48a.783.783 0 111.565 0v3.13zm-.798-4.47c-.45 0-.751-.32-.742-.714-.01-.413.291-.723.751-.723s.751.31.761.723c0 .394-.3.714-.77.714z" fill="#FFE2B7"/></symbol><symbol fill="none" viewBox="0 0 16 16" id="info-2" xmlns="http://www.w3.org/2000/svg"><path fill-rule="evenodd" clip-rule="evenodd" d="M.154 9.56a8 8 0 1115.69-3.12A8 8 0 01.155 9.56zm1.379-4.239a7 7 0 1012.933 5.358A7 7 0 001.533 5.32z" fill="#988B81"/><path d="M7 3h2v6.5H7V3zm0 10h2v-1.5H7V13z" fill="#988B81"/></symbol><symbol fill="none" viewBox="0 0 32 32" id="instagram" xmlns="http://www.w3.org/2000/svg"><path d="M16 32c8.837 0 16-7.163 16-16S24.837 0 16 0 0 7.163 0 16s7.163 16 16 16z" fill="#C21975"/><path d="M19.701 6.841h-7.403a5.463 5.463 0 00-5.457 5.457V19.7a5.463 5.463 0 005.457 5.457H19.7a5.463 5.463 0 005.457-5.457v-7.403A5.463 5.463 0 0019.7 6.84zm3.614 12.86a3.614 3.614 0 01-3.614 3.614h-7.403a3.614 3.614 0 01-3.614-3.614v-7.403a3.614 3.614 0 013.614-3.614H19.7a3.614 3.614 0 013.614 3.614V19.7z" fill="#fff"/><path d="M15.999 11.262A4.743 4.743 0 0011.262 16a4.743 4.743 0 004.737 4.737A4.743 4.743 0 0020.736 16 4.743 4.743 0 0016 11.262zm0 7.632a2.895 2.895 0 110-5.79 2.895 2.895 0 010 5.79zm5.881-7.596a1.135 1.135 0 11-2.27 0 1.135 1.135 0 012.27 0z" fill="#fff"/><path d="M19.702 6.841h-3.738v1.843h3.738a3.614 3.614 0 013.613 3.614V19.7a3.614 3.614 0 01-3.613 3.614h-3.738v1.843h3.738a5.463 5.463 0 005.456-5.457v-7.403a5.463 5.463 0 00-5.456-5.457z" fill="#fff"/><path d="M16 11.262l-.036.001v1.843l.036-.001a2.895 2.895 0 010 5.79l-.036-.002v1.843H16A4.743 4.743 0 0020.737 16 4.743 4.743 0 0016 11.262z" fill="#fff"/></symbol><symbol fill="none" viewBox="0 0 17 17" id="no" xmlns="http://www.w3.org/2000/svg"><path d="M16.463.55a1.259 1.259 0 00-1.782 0L8.499 6.72 2.32.538a1.259 1.259 0 00-1.783 0 1.259 1.259 0 000 1.782l6.181 6.181-6.181 6.182a1.259 1.259 0 000 1.782c.493.493 1.29.493 1.782 0L8.5 10.284l6.182 6.18a1.257 1.257 0 001.782 0 1.259 1.259 0 000-1.781L10.282 8.5l6.18-6.181c.481-.48.481-1.29 0-1.77z" fill="#BD3132"/></symbol><symbol fill="none" viewBox="0 0 30 22" id="ru-flag" xmlns="http://www.w3.org/2000/svg"><path d="M27.143 0H2.857C1.28 0 0 1.313 0 2.933v16.134C0 20.687 1.28 22 2.857 22h24.286C28.72 22 30 20.687 30 19.067V2.933C30 1.313 28.72 0 27.143 0z" fill="#0034A9"/><path fill-rule="evenodd" clip-rule="evenodd" d="M0 14.667h30V22H0v-7.333z" fill="#D7280F"/><path fill-rule="evenodd" clip-rule="evenodd" d="M0 0h30v7.333H0V0z" fill="#fff"/></symbol><symbol fill="none" viewBox="0 0 10 16" id="share-facebook" xmlns="http://www.w3.org/2000/svg"><path d="M1.03 8.522h1.854v7.22c0 .142.122.258.273.258H6.3c.15 0 .272-.116.272-.258V8.556h2.131a.268.268 0 00.271-.229l.324-2.658a.25.25 0 00-.068-.201.28.28 0 00-.203-.087H6.572V3.715c0-.502.286-.757.85-.757h1.605c.15 0 .273-.116.273-.258V.26a.266.266 0 00-.273-.258H6.815C6.8.002 6.765 0 6.714 0 6.33 0 4.996.071 3.943.988c-1.168 1.017-1.005 2.234-.967 2.445V5.38H1.031a.266.266 0 00-.273.258v2.624c0 .143.122.259.273.259z" fill="#ffe2b7"/></symbol><symbol fill="none" viewBox="0 0 16 14" id="share-linkedin" xmlns="http://www.w3.org/2000/svg"><path d="M4.275 4.504h-2.97a.232.232 0 00-.239.226v9.029c0 .125.107.226.239.226h2.97a.232.232 0 00.239-.226V4.73a.232.232 0 00-.239-.226zM2.791.016c-1.08 0-1.96.83-1.96 1.852 0 1.022.88 1.854 1.96 1.854S4.75 2.89 4.75 1.868C4.75.847 3.871.016 2.791.016zM11.83 4.28c-1.193 0-2.075.485-2.61 1.036V4.73a.232.232 0 00-.238-.226H6.137a.232.232 0 00-.238.226v9.029c0 .125.106.226.238.226h2.964a.232.232 0 00.239-.226V9.292c0-1.506.432-2.092 1.54-2.092 1.209 0 1.305.94 1.305 2.17v4.389c0 .125.106.226.238.226h2.965a.232.232 0 00.239-.226V8.806c0-2.238-.451-4.526-3.797-4.526z" fill="#ffe2b7"/></symbol><symbol fill="none" viewBox="0 0 15 16" id="share-pinterest" xmlns="http://www.w3.org/2000/svg"><path d="M12.37 1.64C11.204.582 9.594 0 7.833 0 5.144 0 3.49 1.043 2.575 1.918 1.45 2.997.803 4.43.803 5.848c0 1.78.787 3.148 2.105 3.656a.732.732 0 00.265.052.582.582 0 00.575-.449c.045-.158.148-.55.193-.719.096-.335.018-.496-.191-.73-.381-.427-.56-.931-.56-1.588 0-1.952 1.537-4.026 4.383-4.026 2.259 0 3.662 1.214 3.662 3.17 0 1.233-.281 2.376-.791 3.217-.355.585-.978 1.281-1.935 1.281-.414 0-.786-.16-1.02-.441a1.064 1.064 0 01-.206-.964c.1-.404.238-.824.371-1.23.242-.744.471-1.445.471-2.005 0-.957-.622-1.6-1.547-1.6-1.176 0-2.098 1.13-2.098 2.573 0 .708.199 1.237.289 1.44l-1.196 4.793c-.097.388-.679 3.46.285 3.704 1.082.275 2.049-2.715 2.147-3.053.08-.275.36-1.315.53-1.953.523.476 1.364.797 2.182.797 1.543 0 2.93-.656 3.907-1.85.947-1.156 1.469-2.768 1.469-4.54 0-1.384-.628-2.748-1.724-3.743z" fill="#ffe2b7"/></symbol><symbol fill="none" viewBox="0 0 18 16" id="share-telegram" xmlns="http://www.w3.org/2000/svg"><g clip-path="url(#clip0_166_596)"><path d="M.654 7.715L4.55 9.09l1.51 4.59c.096.294.476.403.728.207l2.172-1.675a.677.677 0 01.79-.02l3.917 2.69c.27.186.652.046.72-.262l2.869-13.061c.074-.337-.276-.618-.615-.494L.65 6.902a.427.427 0 00.004.813zm5.161.643l7.615-4.437c.137-.08.278.095.16.198L7.306 9.647c-.22.194-.363.455-.404.737l-.214 1.502c-.028.2-.326.22-.384.026L5.48 9.175a.708.708 0 01.335-.817z" fill="#ffe2b7"/></g></symbol><symbol fill="none" viewBox="0 0 16 16" id="share-twitter" xmlns="http://www.w3.org/2000/svg"><path d="M12.601.999h2.453l-5.36 5.93L16 15h-4.937l-3.867-4.894L2.771 15H.316l5.733-6.343L0 .999h5.063l3.495 4.474L12.601.999zm-.861 12.579h1.36L4.323 2.346H2.865l8.875 11.232z" fill="#FFE2B7"/></symbol><symbol fill="none" viewBox="0 0 24 24" id="smile-1-3" xmlns="http://www.w3.org/2000/svg"><path fill="#FFCE1F" fill-rule="evenodd" d="M11.998 23.998C18.627 23.998 24 18.627 24 12c0-6.628-5.373-12-12.002-12C5.373 0 0 5.372 0 12c0 6.626 5.373 11.998 11.998 11.998zM8.027 11.621c.809 0 1.466-1.016 1.466-2.27 0-.666-.183-1.264-.478-1.68-.26-.367-.607-.591-.988-.591-.344 0-.66.182-.911.487-.217.263-.381.618-.474 1.026a3.498 3.498 0 00-.084.758c0 1.254.657 2.27 1.469 2.27zm9.405-2.27c0 .533-.118 1.024-.317 1.413-.27.523-.684.857-1.15.857-.811 0-1.468-1.016-1.468-2.27 0-1.255.657-2.271 1.469-2.271.809 0 1.466 1.016 1.466 2.27zm-9.585 7.746a6.663 6.663 0 014.159-1.458c2.82 0 4.812 1.696 5.463 2.624-1.215-.414-3.554-1.477-5.556-1.413-.964.03-1.844.206-2.603.428-1.134.332-2.005.769-2.51.985.164-.313.523-.744 1.047-1.166z" clip-rule="evenodd"/></symbol><symbol fill="none" viewBox="0 0 24 24" id="smile-4" xmlns="http://www.w3.org/2000/svg"><path fill="#FFCE1F" fill-rule="evenodd" d="M11.998 24C18.627 24 24 18.627 24 12S18.627 0 11.998 0C5.373 0 0 5.373 0 12s5.373 12 11.998 12zm-6.023-8.963c.222 1.248 2.069 3.748 5.741 3.707 3.673-.04 5.678-2.32 6.134-3.707-.87.822-3.313 2.17-6.134 2.127-2.82-.043-4.918-1.367-5.74-2.127zm2.05-3.416c.81 0 1.467-1.016 1.467-2.271 0-.664-.183-1.262-.478-1.678a1.574 1.574 0 00-.455-.438 1.003 1.003 0 00-.973-.053 1.442 1.442 0 00-.471.385c-.217.264-.381.62-.474 1.028-.053.236-.084.49-.084.756 0 1.255.657 2.271 1.469 2.271zM17.43 9.35a3.13 3.13 0 01-.316 1.414 1.8 1.8 0 01-.527.644c-.19.137-.4.213-.622.213-.812 0-1.469-1.016-1.469-2.271 0-1.254.657-2.27 1.469-2.27.809 0 1.465 1.016 1.465 2.27z" clip-rule="evenodd"/></symbol><symbol fill="none" viewBox="0 0 24 24" id="smile-5" xmlns="http://www.w3.org/2000/svg"><path fill="#FFCE1F" fill-rule="evenodd" d="M11.998 24C18.627 24 24 18.627 24 12S18.627 0 11.998 0C5.373 0 0 5.373 0 12s5.373 12 11.998 12zM6.952 12.169c.139-.553.672-1.647 1.71-1.655 1.041-.007 1.534 1.104 1.649 1.661.124-.53.155-1.316.046-2.076-.17-1.176-.675-2.288-1.695-2.287-1.583 0-2.03 2.958-1.71 4.357zm7.443-1.148c-.341.363-.543.84-.62 1.148-.32-1.4.127-4.356 1.71-4.357 1.677-.001 1.968 3.013 1.65 4.363a2.735 2.735 0 00-.339-.841c-.27-.434-.694-.824-1.31-.82-.459.003-.819.22-1.091.508zM5 14.5c.189 2.322 3 6 7 6 4.5 0 6.55-3.608 7-6-5.5 3.5-11.983 1.075-14 0z" clip-rule="evenodd"/></symbol><symbol fill="none" viewBox="0 0 32 32" id="telegram" xmlns="http://www.w3.org/2000/svg"><path d="M16 32c8.837 0 16-7.163 16-16S24.837 0 16 0 0 7.163 0 16s7.163 16 16 16z" fill="#039BE5"/><path d="M7.32 15.653l15.427-5.948c.716-.259 1.341.174 1.11 1.257v-.001l-2.626 12.374c-.195.878-.716 1.091-1.445.678l-4-2.948-1.93 1.858c-.213.214-.393.394-.806.394l.284-4.071 7.413-6.697c.323-.284-.072-.444-.497-.162l-9.162 5.768-3.949-1.232c-.857-.272-.876-.857.181-1.27z" fill="#fff"/></symbol><symbol fill="none" viewBox="0 0 32 32" id="twitter" xmlns="http://www.w3.org/2000/svg"><g clip-path="url(#baa)"><path d="M32 16c0 8.837-7.163 16-16 16S0 24.837 0 16 7.163 0 16 0s16 7.163 16 16z" fill="#000"/><path d="M21.176 8h2.76l-6.03 6.777L25 24h-5.554l-4.35-5.593L10.116 24H7.355l6.45-7.25L7 8h5.695l3.933 5.113L21.176 8zm-.969 14.375h1.53L11.864 9.54h-1.64l9.983 12.836z" fill="#fff"/></g><defs><clipPath id="baa"><path fill="#fff" d="M0 0h32v32H0z"/></clipPath></defs></symbol><symbol fill="none" viewBox="0 0 32 32" id="vk" xmlns="http://www.w3.org/2000/svg"><g clip-path="url(#bba)"><path fill="#07F" d="M16 32c8.837 0 16-7.163 16-16S24.837 0 16 0 0 7.163 0 16s7.163 16 16 16z"/><path fill="#fff" d="M16.893 22C10.06 22 6.163 17.495 6 10h3.423c.112 5.502 2.636 7.832 4.634 8.312V10h3.223v4.745c1.974-.204 4.048-2.367 4.747-4.745h3.223c-.537 2.93-2.785 5.093-4.384 5.982 1.599.72 4.16 2.607 5.134 6.018h-3.548c-.762-2.282-2.66-4.048-5.172-4.288V22h-.387z"/></g><defs><clipPath id="bba"><path fill="#fff" d="M0 0h32v32H0z"/></clipPath></defs></symbol><symbol fill="none" viewBox="0 0 20 18" id="yes" xmlns="http://www.w3.org/2000/svg"><path d="M8.38 17.334c-.434-.634-5.213-5.851-7.548-8.38l1.918-1.71 4.546 4.336c3.402-4.135 8.006-8.254 9.883-9.797.598-.542 1.943-1.492 2.544-.959.6.534.083 1.168-.25 1.418-3.57 2.901-8.883 11.27-11.093 15.092z" fill="#48A663"/></symbol><symbol fill="none" viewBox="0 0 32 32" id="youtube" xmlns="http://www.w3.org/2000/svg"><g clip-path="url(#bda)"><path d="M32 16c0 8.837-7.163 16-16 16S0 24.837 0 16 7.163 0 16 0s16 7.163 16 16z" fill="#fff"/><path d="M14.007 18.998L19.212 16l-5.205-2.998v5.996z" fill="red"/><path d="M16 0C7.165 0 0 7.165 0 16s7.165 16 16 16 16-7.165 16-16S24.835 0 16 0zm9.997 16.016s0 3.245-.411 4.81a2.505 2.505 0 01-1.763 1.762C22.26 23 16 23 16 23s-6.242 0-7.824-.428a2.506 2.506 0 01-1.762-1.763C6.002 19.261 6.002 16 6.002 16s0-3.245.412-4.81a2.556 2.556 0 011.762-1.778C9.741 9 16 9 16 9s6.259 0 7.823.428c.857.23 1.532.906 1.763 1.763.428 1.564.412 4.825.412 4.825z" fill="#EC1717"/></g><defs><clipPath id="bda"><path fill="#fff" d="M0 0h32v32H0z"/></clipPath></defs></symbol></svg>